<svg width="19" height="15" viewBox="0 0 19 15" fill="none" xmlns="http://www.w3.org/2000/svg">
<path d="M12.4414 0.262573L15.2537 4.89757H18.2516V6.56424H17.2295L16.5666 14.1334C16.5483 14.3416 16.4485 14.5358 16.287 14.6773C16.1254 14.8188 15.9139 14.8975 15.6942 14.8976H3.29262C3.07301 14.8975 2.86145 14.8188 2.69989 14.6773C2.53832 14.5358 2.43854 14.3416 2.42031 14.1334L1.75644 6.56424H0.735229V4.89757H3.73229L6.54542 0.262573L8.06234 1.09591L5.75543 4.89757H13.2306L10.9245 1.09591L12.4414 0.262573ZM10.3693 8.23091H8.61761V11.5642H10.3693V8.23091ZM6.86597 8.23091H5.11433V11.5642H6.86597V8.23091ZM13.8725 8.23091H12.1209V11.5642H13.8725V8.23091Z" fill="white"/>
</svg>
