<?xml version="1.0" encoding="utf-8"?><svg viewBox="0 0 19 15" xmlns="http://www.w3.org/2000/svg" xmlns:xlink="http://www.w3.org/1999/xlink"><style>:root>svg{display:none}:root>svg:target{display:block}</style><svg fill="none" viewBox="0 0 19 15" id="product-basket" xmlns="http://www.w3.org/2000/svg"><path d="M12.441.263l2.813 4.635h2.998v1.666H17.23l-.663 7.57a.82.82 0 01-.28.543.901.901 0 01-.593.22H3.293a.901.901 0 01-.593-.22.819.819 0 01-.28-.544l-.664-7.569H.736V4.898h2.996L6.545.263l1.517.833-2.307 3.802h7.476l-2.306-3.802L12.44.263zM10.37 8.23H8.618v3.333h1.751V8.231zm-3.503 0H5.114v3.333h1.752V8.231zm7.007 0H12.12v3.333h1.752V8.231z" fill="#fff"/></svg></svg>